# Blender v2.73 (sub 0) OBJ File: 'board-final.blend'
# www.blender.org
o Cube.004_Cube.005
v -3.904641 0.016347 4.004725
v -3.904641 0.016347 -3.988414
v 4.027896 0.016347 -3.988414
v 4.027896 0.016347 4.004725
v -3.904641 0.116347 4.004725
v -3.904641 0.116347 -3.988414
v 4.027896 0.116347 -3.988414
v 4.027896 0.116347 4.004725
v -3.907027 0.018595 3.994018
v -4.007028 0.018595 3.994018
v -4.007028 0.018595 -4.045982
v -3.907028 0.018595 -4.045982
v -3.907027 0.758595 3.994018
v -4.007028 0.758595 3.994018
v -4.007028 0.758595 -4.045982
v -3.907028 0.758595 -4.045982
v 4.130632 0.017832 4.092889
v 4.030632 0.017832 4.092889
v 4.030632 0.017832 -3.947111
v 4.130632 0.017832 -3.947111
v 4.130632 0.757832 4.092889
v 4.030632 0.757832 4.092889
v 4.030632 0.757832 -3.947111
v 4.130632 0.757832 -3.947111
v -3.906255 0.016201 -3.948799
v -3.906255 0.016201 -4.048800
v 4.133745 0.016201 -4.048800
v 4.133745 0.016201 -3.948799
v -3.906255 0.756201 -3.948799
v -3.906255 0.756201 -4.048800
v 4.133745 0.756201 -4.048800
v 4.133745 0.756201 -3.948799
v -4.008893 0.016464 4.093440
v -4.008893 0.016464 3.993440
v 4.031108 0.016464 3.993440
v 4.031108 0.016464 4.093440
v -4.008893 0.756464 4.093440
v -4.008893 0.756464 3.993440
v 4.031108 0.756464 3.993440
v 4.031108 0.756464 4.093440
vt 0.605720 0.880722
vt 0.605720 0.999588
vt 0.486854 0.999588
vt 0.847074 0.880722
vt 0.965940 0.880722
vt 0.965940 0.999588
vt 0.000371 0.999629
vt 0.000371 0.880763
vt 0.119237 0.880763
vt 0.726768 0.999588
vt 0.726768 0.880722
vt 0.845634 0.880722
vt 0.606463 0.880722
vt 0.725329 0.880722
vt 0.725329 0.999588
vt 0.483804 0.999587
vt 0.364938 0.999587
vt 0.364938 0.880721
vt 0.967379 0.825512
vt 0.967379 0.550663
vt 0.972175 0.550738
vt 0.606463 0.879979
vt 0.606463 0.000371
vt 0.726026 0.000371
vt 0.967379 0.275220
vt 0.967474 0.000371
vt 0.972270 0.000448
vt 0.847074 0.879979
vt 0.847074 0.000371
vt 0.966637 0.000371
vt 0.119988 0.888295
vt 0.221305 0.888295
vt 0.221296 0.890063
vt 0.221297 0.887552
vt 0.119980 0.887552
vt 0.119988 0.885784
vt 0.972917 0.825512
vt 0.972917 0.550663
vt 0.977713 0.550738
vt 0.726769 0.879979
vt 0.726768 0.000371
vt 0.846331 0.000371
vt 0.973012 0.275220
vt 0.973012 0.000371
vt 0.977808 0.000446
vt 0.486157 0.879979
vt 0.486157 0.000371
vt 0.605720 0.000371
vt 0.222056 0.888295
vt 0.323373 0.888295
vt 0.323364 0.890063
vt 0.323365 0.887552
vt 0.222048 0.887552
vt 0.222057 0.885784
vt 0.978513 0.549844
vt 0.978513 0.276039
vt 0.983291 0.276114
vt 0.000371 0.879979
vt 0.000674 0.000371
vt 0.121151 0.000413
vt 0.972994 0.549844
vt 0.972994 0.276039
vt 0.977771 0.276114
vt 0.121893 0.879979
vt 0.122196 0.000371
vt 0.242673 0.000413
vt 0.119989 0.883273
vt 0.221306 0.883273
vt 0.221297 0.885042
vt 0.221297 0.882531
vt 0.119980 0.882531
vt 0.119989 0.880763
vt 0.978455 0.824468
vt 0.978455 0.550663
vt 0.983233 0.550738
vt 0.243416 0.879979
vt 0.243719 0.000371
vt 0.364195 0.000413
vt 0.967379 0.549844
vt 0.967474 0.276039
vt 0.972251 0.276116
vt 0.364938 0.879979
vt 0.364938 0.000371
vt 0.485415 0.000371
vt 0.222057 0.883273
vt 0.323374 0.883273
vt 0.323365 0.885042
vt 0.323365 0.882531
vt 0.222048 0.882531
vt 0.222057 0.880763
vt 0.486854 0.880722
vt 0.847074 0.999588
vt 0.119237 0.999629
vt 0.845634 0.999588
vt 0.606463 0.999588
vt 0.483804 0.880721
vt 0.972175 0.825587
vt 0.726026 0.879979
vt 0.972175 0.275297
vt 0.966637 0.879979
vt 0.119980 0.890063
vt 0.221305 0.885784
vt 0.977713 0.825587
vt 0.846331 0.879979
vt 0.977808 0.275295
vt 0.605720 0.879979
vt 0.222048 0.890063
vt 0.323374 0.885784
vt 0.983291 0.549919
vt 0.120847 0.880020
vt 0.977771 0.549919
vt 0.242370 0.880020
vt 0.119980 0.885042
vt 0.221306 0.880763
vt 0.983233 0.824543
vt 0.363892 0.880020
vt 0.972157 0.549921
vt 0.485414 0.879979
vt 0.222048 0.885042
vt 0.323374 0.880763
vn -1.000000 0.000000 0.000000
vn 0.000000 0.000000 -1.000000
vn 1.000000 0.000000 0.000000
vn 0.000000 0.000000 1.000000
vn 0.000000 -1.000000 0.000000
vn 0.000000 1.000000 0.000000
s off
f 6/1/1 2/2/1 1/3/1
f 7/4/2 3/5/2 2/6/2
f 8/7/3 4/8/3 3/9/3
f 5/10/4 1/11/4 4/12/4
f 2/13/5 3/14/5 4/15/5
f 7/16/6 6/17/6 5/18/6
f 14/19/4 10/20/4 9/21/4
f 15/22/1 11/23/1 10/24/1
f 16/25/2 12/26/2 11/27/2
f 13/28/3 9/29/3 12/30/3
f 10/31/5 11/32/5 12/33/5
f 15/34/6 14/35/6 13/36/6
f 22/37/4 18/38/4 17/39/4
f 23/40/1 19/41/1 18/42/1
f 24/43/2 20/44/2 19/45/2
f 21/46/3 17/47/3 20/48/3
f 18/49/5 19/50/5 20/51/5
f 23/52/6 22/53/6 21/54/6
f 30/55/1 26/56/1 25/57/1
f 31/58/2 27/59/2 26/60/2
f 32/61/3 28/62/3 27/63/3
f 29/64/4 25/65/4 28/66/4
f 26/67/5 27/68/5 28/69/5
f 31/70/6 30/71/6 29/72/6
f 38/73/1 34/74/1 33/75/1
f 39/76/2 35/77/2 34/78/2
f 40/79/3 36/80/3 35/81/3
f 37/82/4 33/83/4 36/84/4
f 34/85/5 35/86/5 36/87/5
f 39/88/6 38/89/6 37/90/6
f 5/91/1 6/1/1 1/3/1
f 6/92/2 7/4/2 2/6/2
f 7/93/3 8/7/3 3/9/3
f 8/94/4 5/10/4 4/12/4
f 1/95/5 2/13/5 4/15/5
f 8/96/6 7/16/6 5/18/6
f 13/97/4 14/19/4 9/21/4
f 14/98/1 15/22/1 10/24/1
f 15/99/2 16/25/2 11/27/2
f 16/100/3 13/28/3 12/30/3
f 9/101/5 10/31/5 12/33/5
f 16/102/6 15/34/6 13/36/6
f 21/103/4 22/37/4 17/39/4
f 22/104/1 23/40/1 18/42/1
f 23/105/2 24/43/2 19/45/2
f 24/106/3 21/46/3 20/48/3
f 17/107/5 18/49/5 20/51/5
f 24/108/6 23/52/6 21/54/6
f 29/109/1 30/55/1 25/57/1
f 30/110/2 31/58/2 26/60/2
f 31/111/3 32/61/3 27/63/3
f 32/112/4 29/64/4 28/66/4
f 25/113/5 26/67/5 28/69/5
f 32/114/6 31/70/6 29/72/6
f 37/115/1 38/73/1 33/75/1
f 38/116/2 39/76/2 34/78/2
f 39/117/3 40/79/3 35/81/3
f 40/118/4 37/82/4 36/84/4
f 33/119/5 34/85/5 36/87/5
f 40/120/6 39/88/6 37/90/6
